<svg width="28" height="28" viewBox="0 0 28 28" fill="none" xmlns="http://www.w3.org/2000/svg">
<path d="M11.0942 6.95181L5.54867 10.1765L0 6.95025L5.54867 3.72559L11.0942 6.95181Z" fill="#5EA0EF"/>
<path d="M11.0942 21.4573L5.54712 18.2544V24.682L11.0942 21.4573Z" fill="#005BA1"/>
<path d="M5.54867 10.1764L5.54711 10.1749V10.1764L0 6.9502V21.4682L5.54711 24.6929L11.0942 21.4682V21.4573L5.54711 24.682V18.2544L11.0942 21.4573V6.95175L5.54867 10.1764Z" fill="#0078D4"/>
<path d="M16.9058 6.95181L22.4513 10.1765L28 6.95025L22.4513 3.72559L16.9058 6.95181Z" fill="#9CEBFF"/>
<path d="M16.9058 21.4573L22.4529 18.2544V24.682L16.9058 21.4573Z" fill="#32BEDD"/>
<path d="M22.4513 10.1656H22.4529V18.2436L16.9058 21.4574V6.94092L22.4513 10.1656Z" fill="url(#paint0_linear_2052_7755)"/>
<path d="M16.9058 6.95181L22.4513 10.1765L28 6.95025L22.4513 3.72559L16.9058 6.95181Z" fill="#9CEBFF"/>
<path d="M22.4513 10.1764L16.9058 6.95175V21.4573L22.4529 18.2544V24.682L16.9058 21.4573V21.4682L22.4529 24.6929L28 21.4682V6.9502L22.4513 10.1764Z" fill="#50E6FF"/>
<path d="M16.9058 21.4573L22.4529 18.2544V24.682L16.9058 21.4573Z" fill="#32BEDD"/>
<path d="M22.4513 10.1656H22.4529V18.2436L16.9058 21.4574V6.94092L22.4513 10.1656Z" fill="url(#paint1_linear_2052_7755)"/>
<path d="M5.54867 10.1748H5.54712V18.2528L11.0942 21.4681V6.95166L5.54867 10.1748Z" fill="url(#paint2_linear_2052_7755)"/>
<path d="M22.4357 15.7516C21.4651 18.1721 17.6664 19.7712 14.1166 19.7712H13.9906H13.8662C10.3164 19.7712 6.51774 18.1721 5.54707 15.7516C5.54707 15.7516 5.50818 13.3234 5.54707 13.0869C6.25329 15.7889 9.95551 17.7878 13.7806 17.7878H13.9906H14.2022C18.0211 17.7878 21.7295 15.7889 22.4357 13.0869C22.4746 13.3234 22.4357 15.7516 22.4357 15.7516ZM20.8444 9.24316C18.9655 10.7587 16.6159 11.5698 14.2022 11.5361H13.9906H13.7806C11.3693 11.5701 9.02177 10.7613 7.14307 9.24939L5.81151 10.0272C7.0824 12.1474 10.5777 13.5178 13.8662 13.5178H14.1166C17.4066 13.5178 20.9082 12.1443 22.176 10.0163L20.8444 9.24316Z" fill="url(#paint3_linear_2052_7755)"/>
<defs>
<linearGradient id="paint0_linear_2052_7755" x1="22.4529" y1="14.1991" x2="16.9058" y2="14.1991" gradientUnits="userSpaceOnUse">
<stop stop-color="#32BEDD"/>
<stop offset="0.998" stop-color="#9CEBFF" stop-opacity="0.5"/>
</linearGradient>
<linearGradient id="paint1_linear_2052_7755" x1="22.4529" y1="14.1991" x2="16.9058" y2="14.1991" gradientUnits="userSpaceOnUse">
<stop stop-color="#32BEDD"/>
<stop offset="0.998" stop-color="#9CEBFF" stop-opacity="0.5"/>
</linearGradient>
<linearGradient id="paint2_linear_2052_7755" x1="5.54867" y1="14.2099" x2="11.0958" y2="14.2099" gradientUnits="userSpaceOnUse">
<stop stop-color="#005BA1"/>
<stop offset="0.998" stop-color="#005BA1" stop-opacity="0"/>
</linearGradient>
<linearGradient id="paint3_linear_2052_7755" x1="5.52996" y1="14.5072" x2="22.4528" y2="14.5072" gradientUnits="userSpaceOnUse">
<stop stop-color="#005BA1"/>
<stop offset="0.974" stop-color="#32BEDD"/>
</linearGradient>
</defs>
</svg>
