<svg width="28" height="28" viewBox="0 0 28 28" fill="none" xmlns="http://www.w3.org/2000/svg">
<g clip-path="url(#clip0_2052_7738)">
<path d="M26.88 0.32666H0.746688C0.231222 0.32666 -0.186646 0.744528 -0.186646 1.25999V18.06C-0.186646 18.5755 0.231222 18.9933 0.746688 18.9933H26.88C27.3955 18.9933 27.8134 18.5755 27.8134 18.06V1.25999C27.8134 0.744528 27.3955 0.32666 26.88 0.32666Z" fill="url(#paint0_linear_2052_7738)"/>
<path d="M18.48 6.93799V12.3669L13.8134 15.1047V9.66021L18.48 6.93799Z" fill="#50E6FF"/>
<path d="M18.4799 6.93755L13.8133 9.67533L9.14661 6.93755L13.8133 4.21533L18.4799 6.93755Z" fill="#C3F1FF"/>
<path d="M13.8133 9.67577V15.1047L9.14661 12.3669V6.93799L13.8133 9.67577Z" fill="#9CEBFF"/>
<path d="M9.14661 12.3668L13.8133 9.66016V15.1046L9.14661 12.3668Z" fill="#C3F1FF"/>
<path d="M18.48 12.3668L13.8134 9.66016V15.1046L18.48 12.3668Z" fill="#9CEBFF"/>
<path d="M19.4289 24.6398C16.66 24.2043 16.5512 22.2132 16.5512 18.9932H11.06C11.06 22.2132 10.9667 24.2043 8.19783 24.6398C7.8156 24.6821 7.46258 24.8645 7.20691 25.1518C6.95125 25.439 6.81105 25.8108 6.81338 26.1954H20.8134C20.8157 25.8108 20.6755 25.439 20.4199 25.1518C20.1642 24.8645 19.8112 24.6821 19.4289 24.6398Z" fill="url(#paint1_linear_2052_7738)"/>
</g>
<defs>
<linearGradient id="paint0_linear_2052_7738" x1="13.8134" y1="18.9933" x2="13.8134" y2="0.32666" gradientUnits="userSpaceOnUse">
<stop stop-color="#0078D4"/>
<stop offset="0.82" stop-color="#5EA0EF"/>
</linearGradient>
<linearGradient id="paint1_linear_2052_7738" x1="13.8134" y1="26.1954" x2="13.8134" y2="18.9932" gradientUnits="userSpaceOnUse">
<stop offset="0.15" stop-color="#CCCCCC"/>
<stop offset="1" stop-color="#707070"/>
</linearGradient>
<clipPath id="clip0_2052_7738">
<rect width="28" height="28" fill="white"/>
</clipPath>
</defs>
</svg>
