<svg width="28" height="23" viewBox="0 0 28 23" fill="none" xmlns="http://www.w3.org/2000/svg">
<path d="M28 13.6333C27.9551 12.1414 27.3813 10.714 26.3811 9.60614C25.381 8.49826 24.0195 7.78199 22.54 7.58526C22.4485 5.50285 21.5412 3.5401 20.0142 2.12134C18.4871 0.702579 16.4631 -0.0582008 14.3796 0.00347782C12.6931 -0.028121 11.0386 0.465442 9.64507 1.41582C8.25156 2.36619 7.18803 3.72635 6.60178 5.30792C4.82023 5.52379 3.17491 6.37059 1.96386 7.69493C0.752806 9.01927 0.0561202 10.7336 0 12.5273C0.0785921 14.5421 0.952317 16.4437 2.42988 17.8157C3.90744 19.1877 5.86845 19.9184 7.88356 19.8477C8.11845 19.8477 8.35022 19.8368 8.57889 19.8181H21.3453C21.4619 19.8196 21.5781 19.805 21.6907 19.7746C23.3311 19.7612 24.9029 19.115 26.0784 17.9708C27.2539 16.8265 27.9423 15.2727 28 13.6333Z" fill="url(#paint0_linear_2052_7754)"/>
<path d="M18.0413 9.78149C18.0443 9.08681 17.8636 8.40368 17.5175 7.80135C17.1714 7.19902 16.6722 6.6989 16.0705 6.35169C15.4688 6.00447 14.786 5.8225 14.0913 5.82423C13.3966 5.82596 12.7148 6.01132 12.1148 6.36152C11.5148 6.71172 11.0181 7.21431 10.675 7.81836C10.3319 8.4224 10.1546 9.10642 10.1611 9.80107C10.1675 10.4957 10.3575 11.1763 10.7118 11.7739C11.0661 12.3715 11.572 12.8647 12.1784 13.2037V18.3044H15.96V13.241C16.5875 12.9068 17.1126 12.4084 17.4792 11.7992C17.8457 11.1899 18.04 10.4925 18.0413 9.78149ZM14.7933 17.1299H13.3451V13.6455C13.5941 13.6946 13.8472 13.7201 14.1011 13.7217C14.3334 13.719 14.5651 13.6956 14.7933 13.6517V17.1299ZM14.7933 12.4539C14.5677 12.5159 14.335 12.5488 14.1011 12.5519C13.8447 12.5485 13.5902 12.5087 13.3451 12.4337L14.7933 12.4539ZM15.96 11.8317L12.1784 11.7742C11.7753 11.3886 11.4977 10.8907 11.3817 10.3451C11.2657 9.79959 11.3166 9.23175 11.5279 8.71558C11.7392 8.19941 12.1011 7.75884 12.5664 7.45126C13.0316 7.14368 13.5788 6.98334 14.1365 6.99114C14.6941 6.99894 15.2366 7.17451 15.693 7.49499C16.1495 7.81546 16.4989 8.26598 16.6957 8.78785C16.8925 9.30973 16.9276 9.87878 16.7963 10.4209C16.6651 10.963 16.3737 11.453 15.96 11.827V11.8317Z" fill="white"/>
<path d="M22.9523 17.1333H5.22671C4.87619 17.1333 4.59204 17.4175 4.59204 17.768V21.6911C4.59204 22.0416 4.87619 22.3257 5.22671 22.3257H22.9523C23.3028 22.3257 23.5869 22.0416 23.5869 21.6911V17.768C23.5869 17.4175 23.3028 17.1333 22.9523 17.1333Z" fill="url(#paint1_linear_2052_7754)"/>
<path d="M21.8104 18.0415H21.0264C20.8512 18.0415 20.7091 18.1836 20.7091 18.3588V19.1428C20.7091 19.3181 20.8512 19.4602 21.0264 19.4602H21.8104C21.9857 19.4602 22.1278 19.3181 22.1278 19.1428V18.3588C22.1278 18.1836 21.9857 18.0415 21.8104 18.0415Z" fill="white"/>
<path opacity="0.6" d="M21.8104 19.9985H21.0264C20.8512 19.9985 20.7091 20.1406 20.7091 20.3159V21.0999C20.7091 21.2751 20.8512 21.4172 21.0264 21.4172H21.8104C21.9857 21.4172 22.1278 21.2751 22.1278 21.0999V20.3159C22.1278 20.1406 21.9857 19.9985 21.8104 19.9985Z" fill="white"/>
<path d="M16.8685 9.78166C16.8713 9.26477 16.7296 8.75739 16.4593 8.31675C16.1891 7.87611 15.8011 7.51975 15.3391 7.28788C14.8772 7.05601 14.3596 6.95785 13.8448 7.00447C13.33 7.0511 12.8385 7.24065 12.4257 7.55175C12.0129 7.86286 11.6952 8.28312 11.5086 8.76514C11.3219 9.24716 11.2737 9.77176 11.3693 10.2797C11.4649 10.7877 11.7005 11.2589 12.0497 11.64C12.3988 12.0212 12.8475 12.2973 13.3451 12.437V17.1301H14.7934V12.4634C15.3877 12.3099 15.9141 11.9631 16.2898 11.4776C16.6654 10.9921 16.869 10.3955 16.8685 9.78166Z" fill="#76BC2D"/>
<defs>
<linearGradient id="paint0_linear_2052_7754" x1="14" y1="19.8477" x2="14" y2="0.00347745" gradientUnits="userSpaceOnUse">
<stop stop-color="#0078D4"/>
<stop offset="1" stop-color="#5EA0EF"/>
</linearGradient>
<linearGradient id="paint1_linear_2052_7754" x1="14.0903" y1="22.3273" x2="14.0903" y2="17.1333" gradientUnits="userSpaceOnUse">
<stop stop-color="#76BC2D"/>
<stop offset="0.817" stop-color="#86D633"/>
</linearGradient>
</defs>
</svg>
