<svg width="28" height="28" viewBox="0 0 28 28" fill="none" xmlns="http://www.w3.org/2000/svg">
<g clip-path="url(#clip0_2052_7769)">
<path d="M28 15.9851C27.9625 14.7834 27.4992 13.6342 26.6929 12.7424C25.8866 11.8506 24.7896 11.2742 23.5978 11.1162C23.5249 9.43684 22.7936 7.85369 21.5621 6.70953C20.3306 5.56536 18.698 4.95225 17.0178 5.00291C15.6665 4.98875 14.3437 5.392 13.2301 6.15761C12.1164 6.92323 11.2662 8.01389 10.7956 9.28068C9.34396 9.4494 8.00244 10.1377 7.01884 11.2186C6.03524 12.2994 5.47601 13.6996 5.44446 15.1607C5.52898 16.7754 6.23874 18.2938 7.4234 19.3942C8.60806 20.4947 10.1746 21.0908 11.7911 21.0562H22.68H22.96C24.2958 21.036 25.5707 20.4942 26.5124 19.5467C27.4541 18.5992 27.988 17.321 28 15.9851Z" fill="url(#paint0_linear_2052_7769)"/>
<path d="M23.1778 17.0582C23.141 15.8243 22.6673 14.6435 21.8412 13.7262C21.015 12.8089 19.89 12.2146 18.6667 12.0494C18.5819 10.3314 17.8246 8.71576 16.5585 7.5515C15.2924 6.38724 13.619 5.76785 11.9 5.82714C10.5099 5.79736 9.1446 6.19853 7.99156 6.97558C6.83851 7.75263 5.9542 8.86749 5.46 10.1671C3.98712 10.3481 2.62743 11.0496 1.62624 12.1449C0.625045 13.2402 0.0482785 14.6573 0 16.1405C0.0648185 17.8103 0.788805 19.3864 2.01338 20.5235C3.23795 21.6606 4.86327 22.266 6.53333 22.2071H7.10889H17.6711H17.9511C19.3215 22.1993 20.6347 21.6568 21.611 20.695C22.5872 19.7333 23.1494 18.4284 23.1778 17.0582Z" fill="url(#paint1_linear_2052_7769)"/>
<path d="M7.49786 14.1809H8.82008C8.86928 14.1799 8.91816 14.189 8.96366 14.2078C9.00916 14.2265 9.05031 14.2544 9.08453 14.2898L12.1956 17.4009C12.2328 17.4358 12.2625 17.478 12.2828 17.5248C12.303 17.5716 12.3135 17.6221 12.3135 17.6731C12.3135 17.7242 12.303 17.7746 12.2828 17.8215C12.2625 17.8683 12.2328 17.9104 12.1956 17.9454L7.96453 22.0987C7.92977 22.1333 7.88852 22.1608 7.84315 22.1795C7.79777 22.1981 7.74915 22.2077 7.70008 22.2076H6.44008C6.37009 22.1962 6.30455 22.1658 6.25055 22.1199C6.19655 22.0739 6.15615 22.014 6.13373 21.9467C6.1113 21.8795 6.1077 21.8073 6.12331 21.7381C6.13892 21.669 6.17316 21.6054 6.22231 21.5542L9.81564 17.9142C9.85243 17.8807 9.88182 17.8399 9.90193 17.7943C9.92204 17.7488 9.93243 17.6996 9.93243 17.6498C9.93243 17.6 9.92204 17.5508 9.90193 17.5053C9.88182 17.4597 9.85243 17.4189 9.81564 17.3854L7.23342 14.8187C7.18102 14.7665 7.14532 14.6999 7.13083 14.6273C7.11635 14.5548 7.12375 14.4796 7.15208 14.4113C7.18041 14.3429 7.2284 14.2845 7.28997 14.2435C7.35153 14.2025 7.42389 14.1807 7.49786 14.1809ZM12.8334 8.93869H14.1868C14.2877 8.94421 14.3826 8.98885 14.4512 9.06313L16.8312 11.4742C16.866 11.5089 16.8936 11.5501 16.9125 11.5955C16.9313 11.6409 16.941 11.6896 16.941 11.7387C16.941 11.7878 16.9313 11.8365 16.9125 11.8819C16.8936 11.9272 16.866 11.9685 16.8312 12.0031L13.7201 14.9742C13.6853 15.0089 13.6441 15.0363 13.5987 15.055C13.5533 15.0737 13.5047 15.0833 13.4556 15.0831H12.3201C12.2478 15.0797 12.1779 15.0562 12.1182 15.0151C12.0586 14.9741 12.0115 14.9173 11.9824 14.851C11.9533 14.7847 11.9433 14.7116 11.9535 14.64C11.9637 14.5683 11.9937 14.5009 12.0401 14.4454L14.4201 12.0498C14.4868 11.9779 14.5238 11.8834 14.5238 11.7854C14.5238 11.6873 14.4868 11.5928 14.4201 11.5209L12.569 9.65425C12.4741 9.61918 12.397 9.54785 12.3547 9.45596C12.3124 9.36407 12.3083 9.25913 12.3434 9.16425C12.3785 9.06936 12.4498 8.99229 12.5417 8.94999C12.6336 8.90769 12.7385 8.90362 12.8334 8.93869ZM15.6179 15.1609H16.9401C17.038 15.1664 17.1311 15.2048 17.2045 15.2698L19.149 17.2142C19.2157 17.2862 19.2527 17.3806 19.2527 17.4787C19.2527 17.5768 19.2157 17.6712 19.149 17.7431L16.3334 20.5898C16.2992 20.6252 16.258 20.6531 16.2125 20.6718C16.167 20.6906 16.1182 20.6997 16.069 20.6987H14.7934C14.7194 20.6989 14.6471 20.6771 14.5855 20.6361C14.524 20.5951 14.476 20.5367 14.4476 20.4683C14.4193 20.4 14.4119 20.3248 14.4264 20.2523C14.4409 20.1797 14.4766 20.1131 14.529 20.0609L16.7379 17.8209C16.8046 17.749 16.8416 17.6545 16.8416 17.5565C16.8416 17.4584 16.8046 17.3639 16.7379 17.292L15.3534 15.8765C15.3033 15.8282 15.2677 15.7669 15.2506 15.6994C15.2335 15.632 15.2356 15.5611 15.2566 15.4948C15.2777 15.4285 15.3168 15.3694 15.3696 15.3241C15.4225 15.2789 15.4869 15.2493 15.5556 15.2387L15.6179 15.1609Z" fill="white"/>
</g>
<defs>
<linearGradient id="paint0_linear_2052_7769" x1="16.7222" y1="20.6674" x2="16.7222" y2="4.14735" gradientUnits="userSpaceOnUse">
<stop stop-color="#0078D4"/>
<stop offset="0.16" stop-color="#1380DA"/>
<stop offset="0.53" stop-color="#3C91E5"/>
<stop offset="0.82" stop-color="#559CEC"/>
<stop offset="1" stop-color="#5EA0EF"/>
</linearGradient>
<linearGradient id="paint1_linear_2052_7769" x1="11.5889" y1="26.4227" x2="11.5889" y2="1.45603" gradientUnits="userSpaceOnUse">
<stop stop-color="#198AB3"/>
<stop offset="0.11" stop-color="#22A5CB"/>
<stop offset="0.23" stop-color="#29BADE"/>
<stop offset="0.37" stop-color="#2EC9EB"/>
<stop offset="0.53" stop-color="#31D1F3"/>
<stop offset="0.78" stop-color="#32D4F5"/>
</linearGradient>
<clipPath id="clip0_2052_7769">
<rect width="28" height="28" fill="white"/>
</clipPath>
</defs>
</svg>
